<svg xmlns="http://www.w3.org/2000/svg" width="13.767" height="18.782" viewBox="0 0 13.767 18.782"><defs><style>.a{fill:#949494;}</style></defs><path class="a" d="M6.883,0A6.891,6.891,0,0,0,0,6.883c0,1.744,1.1,4.207,3.265,7.322a49.127,49.127,0,0,0,3.207,4.113l.411.463.411-.463A49.194,49.194,0,0,0,10.5,14.205c2.167-3.115,3.265-5.578,3.265-7.322A6.891,6.891,0,0,0,6.883,0ZM9.606,13.569c-1.071,1.54-2.153,2.866-2.723,3.542-.569-.674-1.647-1.995-2.716-3.533C2.159,10.692,1.1,8.377,1.1,6.883a5.785,5.785,0,1,1,11.571,0c0,1.492-1.059,3.8-3.063,6.686Zm0,0"/><path class="a" d="M80.961,69.352a4.063,4.063,0,1,0,4.063,4.062A4.067,4.067,0,0,0,80.961,69.352Zm0,7.027a2.964,2.964,0,1,1,2.965-2.965A2.968,2.968,0,0,1,80.961,76.379Zm0,0" transform="translate(-74.078 -66.808)"/></svg>